HIERARCHY
ROOT Hips
{
    OFFSET   0.000000   0.000000   0.000000
    CHANNELS 6 Xposition Yposition Zposition Zrotation Xrotation Yrotation
    JOINT Chest
    {
        OFFSET   0.000000   8.007240   0.000000
        CHANNELS 3 Zrotation Xrotation Yrotation
        JOINT Chest2
        {
            OFFSET   0.000000  22.077100   0.000000
            CHANNELS 3 Zrotation Xrotation Yrotation
            JOINT Neck
            {
                OFFSET   0.000000  23.254800   0.000000
                CHANNELS 3 Zrotation Xrotation Yrotation
                JOINT Head
                {
                    OFFSET   0.000000  14.370000   1.956600
                    CHANNELS 3 Zrotation Xrotation Yrotation
                    End Site
                    {
                        OFFSET   0.000000  19.566000   0.000000
                    }
                }
            }
            JOINT LeftCollar
            {
                OFFSET   3.911900  19.017000  -0.467064
                CHANNELS 3 Zrotation Xrotation Yrotation
                JOINT LeftShoulder
                {
                    OFFSET  10.383700   0.000000   0.000000
                    CHANNELS 3 Zrotation Xrotation Yrotation
                    JOINT LeftElbow
                    {
                        OFFSET  26.662100   0.001476   0.000517
                        CHANNELS 3 Zrotation Xrotation Yrotation
                        JOINT LeftWrist
                        {
                            OFFSET  28.869000  -0.000025  -0.000106
                            CHANNELS 3 Zrotation Xrotation Yrotation
                            JOINT LeftFinger0
                            {
                                OFFSET   2.044660  -2.323460   3.252850
                                CHANNELS 3 Zrotation Xrotation Yrotation
                                JOINT LeftFinger01
                                {
                                    OFFSET   3.088130   0.000000   0.000000
                                    CHANNELS 3 Zrotation Xrotation Yrotation
                                    JOINT LeftFinger02
                                    {
                                        OFFSET   2.639460   0.000000   0.000000
                                        CHANNELS 3 Zrotation Xrotation Yrotation
                                        End Site
                                        {
                                            OFFSET   2.582190   0.000000   0.000000
                                        }
                                    }
                                }
                            }
                            JOINT LeftFinger1
                            {
                                OFFSET   8.364480   0.000000   3.252850
                                CHANNELS 3 Zrotation Xrotation Yrotation
                                JOINT LeftFinger11
                                {
                                    OFFSET   4.646930   0.000000   0.000000
                                    CHANNELS 3 Zrotation Xrotation Yrotation
                                    JOINT LeftFinger12
                                    {
                                        OFFSET   2.323460   0.000000   0.000000
                                        CHANNELS 3 Zrotation Xrotation Yrotation
                                        End Site
                                        {
                                            OFFSET   2.273050   0.000000   0.000000
                                        }
                                    }
                                }
                            }
                            JOINT LeftFinger2
                            {
                                OFFSET   8.364490   0.000015   1.078090
                                CHANNELS 3 Zrotation Xrotation Yrotation
                                JOINT LeftFinger21
                                {
                                    OFFSET   5.111620   0.000000   0.000000
                                    CHANNELS 3 Zrotation Xrotation Yrotation
                                    JOINT LeftFinger22
                                    {
                                        OFFSET   2.788160   0.000016   0.000000
                                        CHANNELS 3 Zrotation Xrotation Yrotation
                                        End Site
                                        {
                                            OFFSET   2.727660   0.000000   0.000000
                                        }
                                    }
                                }
                            }
                            JOINT LeftFinger3
                            {
                                OFFSET   7.899780   0.000017  -1.078090
                                CHANNELS 3 Zrotation Xrotation Yrotation
                                JOINT LeftFinger31
                                {
                                    OFFSET   4.646930   0.000000   0.000000
                                    CHANNELS 3 Zrotation Xrotation Yrotation
                                    JOINT LeftFinger32
                                    {
                                        OFFSET   2.323470   0.000000   0.000000
                                        CHANNELS 3 Zrotation Xrotation Yrotation
                                        End Site
                                        {
                                            OFFSET   2.273050   0.000000   0.000000
                                        }
                                    }
                                }
                            }
                            JOINT LeftFinger4
                            {
                                OFFSET   7.435090   0.000000  -3.252850
                                CHANNELS 3 Zrotation Xrotation Yrotation
                                JOINT LeftFinger41
                                {
                                    OFFSET   3.717550   0.000000   0.000000
                                    CHANNELS 3 Zrotation Xrotation Yrotation
                                    JOINT LeftFinger42
                                    {
                                        OFFSET   1.858770   0.000000   0.000000
                                        CHANNELS 3 Zrotation Xrotation Yrotation
                                        End Site
                                        {
                                            OFFSET   1.818440   0.000000   0.000000
                                        }
                                    }
                                }
                            }
                        }
                    }
                }
            }
            JOINT RightCollar
            {
                OFFSET  -3.911900  19.017000  -0.467063
                CHANNELS 3 Zrotation Xrotation Yrotation
                JOINT RightShoulder
                {
                    OFFSET -10.383700   0.000019   0.000000
                    CHANNELS 3 Zrotation Xrotation Yrotation
                    JOINT RightElbow
                    {
                        OFFSET -26.662100   0.001175   0.000102
                        CHANNELS 3 Zrotation Xrotation Yrotation
                        JOINT RightWrist
                        {
                            OFFSET -28.869000   0.000016  -0.000079
                            CHANNELS 3 Zrotation Xrotation Yrotation
                            JOINT RightFinger0
                            {
                                OFFSET  -2.044660  -2.323490   3.252850
                                CHANNELS 3 Zrotation Xrotation Yrotation
                                JOINT RightFinger01
                                {
                                    OFFSET  -3.088140   0.000000   0.000000
                                    CHANNELS 3 Zrotation Xrotation Yrotation
                                    JOINT RightFinger02
                                    {
                                        OFFSET  -2.639460   0.000000   0.000000
                                        CHANNELS 3 Zrotation Xrotation Yrotation
                                        End Site
                                        {
                                            OFFSET  -2.582190   0.000000   0.000000
                                        }
                                    }
                                }
                            }
                            JOINT RightFinger1
                            {
                                OFFSET  -8.364480   0.000000   3.252850
                                CHANNELS 3 Zrotation Xrotation Yrotation
                                JOINT RightFinger11
                                {
                                    OFFSET  -4.646930   0.000000   0.000000
                                    CHANNELS 3 Zrotation Xrotation Yrotation
                                    JOINT RightFinger12
                                    {
                                        OFFSET  -2.323470   0.000000   0.000000
                                        CHANNELS 3 Zrotation Xrotation Yrotation
                                        End Site
                                        {
                                            OFFSET  -2.273050   0.000000   0.000000
                                        }
                                    }
                                }
                            }
                            JOINT RightFinger2
                            {
                                OFFSET  -8.364480   0.000000   1.078090
                                CHANNELS 3 Zrotation Xrotation Yrotation
                                JOINT RightFinger21
                                {
                                    OFFSET  -5.111620   0.000000   0.000000
                                    CHANNELS 3 Zrotation Xrotation Yrotation
                                    JOINT RightFinger22
                                    {
                                        OFFSET  -2.788160   0.000000   0.000000
                                        CHANNELS 3 Zrotation Xrotation Yrotation
                                        End Site
                                        {
                                            OFFSET  -2.727660   0.000000   0.000000
                                        }
                                    }
                                }
                            }
                            JOINT RightFinger3
                            {
                                OFFSET  -7.899780   0.000000  -1.078090
                                CHANNELS 3 Zrotation Xrotation Yrotation
                                JOINT RightFinger31
                                {
                                    OFFSET  -4.646930   0.000000   0.000000
                                    CHANNELS 3 Zrotation Xrotation Yrotation
                                    JOINT RightFinger32
                                    {
                                        OFFSET  -2.323470   0.000000   0.000000
                                        CHANNELS 3 Zrotation Xrotation Yrotation
                                        End Site
                                        {
                                            OFFSET  -2.273050   0.000000   0.000000
                                        }
                                    }
                                }
                            }
                            JOINT RightFinger4
                            {
                                OFFSET  -7.435090   0.000000  -3.252850
                                CHANNELS 3 Zrotation Xrotation Yrotation
                                JOINT RightFinger41
                                {
                                    OFFSET  -3.717550   0.000000   0.000000
                                    CHANNELS 3 Zrotation Xrotation Yrotation
                                    JOINT RightFinger42
                                    {
                                        OFFSET  -1.858770   0.000000   0.000000
                                        CHANNELS 3 Zrotation Xrotation Yrotation
                                        End Site
                                        {
                                            OFFSET  -1.818440   0.000000   0.000000
                                        }
                                    }
                                }
                            }
                        }
                    }
                }
            }
        }
    }
    JOINT LeftHip
    {
        OFFSET   9.783040   0.000000   0.000000
        CHANNELS 3 Zrotation Xrotation Yrotation
        JOINT LeftKnee
        {
            OFFSET   0.000032 -41.789100  -0.002222
            CHANNELS 3 Zrotation Xrotation Yrotation
            JOINT LeftAnkle
            {
                OFFSET   0.000087 -41.133200  -0.000135
                CHANNELS 3 Zrotation Xrotation Yrotation
                JOINT LeftToe
                {
                    OFFSET   0.000000  -6.358960  14.674500
                    CHANNELS 3 Zrotation Xrotation Yrotation
                    End Site
                    {
                        OFFSET   0.000000   0.000000   3.913200
                    }
                }
            }
        }
    }
    JOINT RightHip
    {
        OFFSET  -9.783040   0.000000   0.000000
        CHANNELS 3 Zrotation Xrotation Yrotation
        JOINT RightKnee
        {
            OFFSET   0.000047 -41.789100  -0.000896
            CHANNELS 3 Zrotation Xrotation Yrotation
            JOINT RightAnkle
            {
                OFFSET  -0.000117 -41.133300  -0.000248
                CHANNELS 3 Zrotation Xrotation Yrotation
                JOINT RightToe
                {
                    OFFSET   0.000000  -6.358970  14.674500
                    CHANNELS 3 Zrotation Xrotation Yrotation
                    End Site
                    {
                        OFFSET   0.000000   0.000000   3.913200
                    }
                }
            }
        }
    }
}
MOTION
Frames: 6
Frame Time:   0.016667
 -0.493248  89.470100   1.490320  -2.941730  -8.298060   0.125799   0.682615   3.547540  -0.158597   1.379080   7.092990  -0.360664   1.977030   0.628734  -0.021718   3.249010   1.270480   4.599220  -3.393180   2.101390   1.173910 -75.802200  10.155600  -1.291060  -1.734560  -2.816530 -12.836300  11.901600  -2.887090  -3.573970  41.918100  28.018600 -57.154000 -23.262700   0.035547   0.015385  -6.631370   0.016881   0.003124 -25.596300   2.579740  -5.367630 -21.041400   0.012021   0.049972 -14.729000  -0.001010   0.036470 -27.651400  -0.321980   0.614587 -29.966800  -0.080311  -0.057529 -19.957800  -0.034324  -0.068800 -26.214900  -0.306502   0.622459 -26.216600  -0.084701  -0.058452 -17.460200  -0.038076  -0.071586 -24.428700  -0.286948   0.631709 -36.645500  -0.053214  -0.121501 -24.405800   0.027069  -0.082685   3.253640  -1.839960   3.382020  25.474900 -12.610600  50.396600 -50.315200 -25.931300  62.849800 -34.949100  26.212100  28.206000 -53.210000  51.366000 100.984000 -17.116700   0.000423   0.000266 -13.558400   0.003680  -0.002418  -7.861260   0.910672  -6.684730   0.098216   0.002270   0.001048   0.068743   0.001611  -0.006892  -2.884820   0.330353  -6.735130  -0.000059   0.004100   0.000501  -0.168323   0.002765  -0.004104 -18.943300   2.181490  -6.383000  -0.000000   0.001063   0.002887  -0.000000   0.000125   0.001817  -9.638750   1.140880  -6.646770   0.000000   0.000000   0.002817   0.000000  -0.000248   0.001825   2.884180  11.009300   1.825680   0.413261   0.130427  12.534800  -1.132110  -3.351990   1.642850  -0.000000   0.000000  -0.000000   2.828500  11.461000  -4.980980   0.191474   0.587945 -17.076500   0.690560  -3.781200   1.787520   0.000000   0.000000  -0.000000
 -0.499224  89.470300   1.499460  -2.941280  -8.295150   0.136305   0.678367   3.537970  -0.155765   1.370390   7.073840  -0.354580   1.986610   0.630620  -0.021737   3.265020   1.274630   4.564020  -3.387140   2.109190   1.170020 -75.788700  10.162900  -1.285910  -1.716360  -2.831100 -12.827800  11.919100  -2.917430  -3.586740  41.910900  28.005000 -57.140100 -23.263700   0.023674   0.010153  -6.631900   0.010919   0.003951 -25.606800   2.575970  -5.357710 -21.049200  -0.002829   0.003693 -14.734500  -0.000513   0.000242 -27.653800  -0.323789   0.617956 -29.986300  -0.036815  -0.026705 -19.970900  -0.017087  -0.041108 -26.222500  -0.308273   0.625846 -26.224200  -0.038403  -0.027222 -17.465300  -0.019972  -0.041896 -24.438400  -0.288554   0.635135 -36.659900  -0.031633  -0.081645 -24.415500   0.021903  -0.053293   3.239570  -1.837200   3.378270  25.341300 -12.608300  50.411100 -50.262900 -25.977700  62.792400 -34.862800  26.253700  28.154000 -53.475500  51.524100 101.323000 -17.090500   0.000371   0.000256 -13.545300   0.003712  -0.002384  -7.321390   0.835251  -6.672760   0.049108  -0.004484  -0.001619  -0.374363  -0.003038  -0.008071  -2.801080   0.317036  -6.720790  -0.000052  -0.003758  -0.001910  -0.207462  -0.002482  -0.005902 -19.163900   2.175020  -6.371000   0.091251   0.002848   0.003189   0.081189   0.001737   0.002009 -11.335900   1.313840  -6.627760   0.115569   0.001407   0.003366   0.095773   0.000896   0.002180   2.887050  11.029900   1.825020   0.413280   0.089835  12.533800  -1.127820  -3.332790   1.640910  -0.000000   0.000000   0.000000   2.834630  11.459000  -4.982790   0.194353   0.590471 -17.077200   0.685301  -3.785800   1.778730   0.000000   0.000000   0.000000
 -0.506439  89.470400   1.509560  -2.940400  -8.291700   0.147974   0.672552   3.527560  -0.153210   1.358430   7.053010  -0.348980   1.998610   0.633005  -0.021755   3.284510   1.279670   4.521440  -3.383010   2.119160   1.166140 -75.773600  10.164800  -1.279760  -1.697950  -2.841460 -12.825600  11.932300  -2.949760  -3.598110  41.905000  27.997000 -57.131800 -23.267900   0.007011   0.004920  -6.633950   0.002847   0.004801 -25.620900   2.569890  -5.341450 -21.060600  -0.017534  -0.029605 -14.742500  -0.000359  -0.025782 -27.657100  -0.327619   0.625128 -30.009600   0.006681   0.004118 -19.986400   0.001326  -0.007748 -26.235000  -0.312004   0.633067 -26.236700   0.007895   0.004008 -17.473600   0.001115  -0.008257 -24.453900  -0.292178   0.642449 -36.683300  -0.006483  -0.026462 -24.431100   0.013301  -0.013497   3.226440  -1.830530   3.372730  25.230000 -12.605100  50.424300 -50.242000 -26.047500  62.724100 -34.785400  26.290100  28.088700 -53.742500  51.679300 101.664000 -17.064400   0.000324   0.000235 -13.532200   0.003746  -0.002352  -5.613630   0.620681  -6.589580  -0.000002  -0.017484  -0.007044  -0.817470  -0.012164  -0.009361  -2.214770   0.223792  -6.620430  -0.000003  -0.020399  -0.007025  -0.213055  -0.013715  -0.007475 -19.203500   2.129770  -6.286990   0.182502   0.003814   0.003256   0.121536   0.002621   0.002053 -13.042400   1.432900  -6.491980   0.231139   0.002189   0.003597   0.153939   0.001523   0.002326   2.890440  11.051000   1.824590   0.413453   0.043950  12.531700  -1.123660  -3.310920   1.638200  -0.000000   0.000000  -0.000000   2.841000  11.455300  -4.986340   0.197133   0.595237 -17.077800   0.680227  -3.793720   1.772720  -0.000000   0.000000   0.000000
 -0.513736  89.469200   1.519310  -2.939250  -8.287180   0.159684   0.667559   3.516090  -0.151902   1.348310   7.030160  -0.345822   2.009510   0.636979  -0.021780   3.301430   1.287240   4.476610  -3.384010   2.130330   1.166150 -75.754400  10.160400  -1.274030  -1.681760  -2.848620 -12.827700  11.935600  -2.976180  -3.603920  41.903300  27.998300 -57.133200 -23.278100   0.000020   0.005652  -6.638850   0.000649   0.005666 -25.633800   2.564430  -5.326040 -21.070700  -0.010221  -0.013956 -14.749500  -0.000221  -0.012119 -27.661400  -0.333668   0.636971 -30.032500   0.006346   0.003273 -20.001700   0.002577  -0.001137 -26.245500  -0.317807   0.645020 -26.247200   0.007420   0.002224 -17.480700   0.004246  -0.003649 -24.466000  -0.298208   0.654579 -36.701600  -0.003103  -0.005008 -24.443300   0.004719  -0.001853   3.218070  -1.820580   3.369310  25.132000 -12.580200  50.439100 -50.278600 -26.163000  62.663500 -34.582800  26.307900  27.939000 -53.885200  51.758800 101.845000 -17.068500   0.000268   0.000218 -13.534300   0.003788  -0.002328  -2.520000   0.215068  -6.150490   0.100757  -0.035715  -0.014211  -0.573869  -0.025425  -0.010816  -0.236741  -0.028285  -6.072210   0.670521  -0.047670  -0.013720   0.326716  -0.032410  -0.007933 -16.256500   1.661590  -5.843080   0.091249  -0.015821  -0.007630  -0.735003  -0.009437  -0.005253 -12.299100   1.263910  -5.853700   0.115568  -0.009578  -0.008942  -0.871964  -0.005528  -0.006127   2.894380  11.051700   1.824260   0.413637   0.037776  12.526100  -1.124400  -3.307810   1.634880  -0.000000   0.000000  -0.000000   2.846870  11.451000  -4.991070   0.203555   0.601658 -17.080900   0.674352  -3.800900   1.772260  -0.000000   0.000000   0.000000
 -0.520948  89.467600   1.529420  -2.937950  -8.281560   0.171405   0.663396   3.503670  -0.151482   1.339870   7.005380  -0.344655   2.016670   0.643087  -0.021805   3.314150   1.299010   4.445970  -3.386880   2.141780   1.166200 -75.735600  10.154000  -1.269170  -1.673470  -2.853080 -12.829800  11.935400  -2.989770  -3.605840  41.900200  28.000100 -57.136600 -23.287400  -0.002762   0.006876  -6.643520   0.000000   0.006539 -25.645300   2.561270  -5.316970 -21.079900   0.001181   0.001693 -14.755900   0.000157   0.001543 -27.665300  -0.338151   0.645012 -30.052400   0.005385   0.001685 -20.014900   0.002893  -0.000193 -26.255800  -0.322185   0.653138 -26.257600   0.006224  -0.001510 -17.487600   0.005093  -0.002991 -24.476000  -0.303094   0.662820 -36.716700  -0.001725   0.001119 -24.453300  -0.000426   0.000552   3.210930  -1.808600   3.367670  25.066800 -12.545600  50.450100 -50.347100 -26.288200  62.633300 -34.347300  26.261400  27.699300 -54.069100  51.861300 102.078000 -17.097400   0.000216   0.000182 -13.548700   0.003830  -0.002301   1.492120  -0.203651  -5.345840   0.806106  -0.047699  -0.021022   0.564281  -0.034208  -0.012364   3.320070  -0.351405  -5.248760   3.110040  -0.066160  -0.021135   2.071300  -0.045119  -0.008795 -10.301300   0.920930  -5.166830  -0.000016  -0.035456  -0.025284  -1.591550  -0.023337  -0.016916  -9.516910   0.884522  -4.979100  -0.000011  -0.021345  -0.028720  -1.897870  -0.013658  -0.019332   2.899300  11.051800   1.824040   0.413667   0.036894  12.519100  -1.126910  -3.307380   1.630730   0.000000   0.000000  -0.000000   2.852520  11.447200  -4.994970   0.211214   0.605830 -17.087000   0.667952  -3.807880   1.772190  -0.000000   0.000000   0.000000
 -0.527049  89.467100   1.540130  -2.936660  -8.274430   0.183095   0.661728   3.489940  -0.155129   1.336660   6.977860  -0.351781   2.018090   0.652880  -0.021827   3.317340   1.318570   4.440190  -3.394630   2.154380   1.187540 -75.721500  10.149900  -1.267530  -1.673660  -2.855240 -12.826800  11.927700  -2.986690  -3.605950  41.897200  27.999600 -57.144200 -23.289700  -0.003440   0.007874  -6.644830  -0.001100   0.007411 -25.653100   2.563610  -5.320910 -21.086500   0.010221  -0.032357 -14.760500   0.022476  -0.021657 -27.667300  -0.338604   0.642358 -30.063000   0.004477  -0.000443 -20.021900   0.003192  -0.000466 -26.265300  -0.322717   0.650421 -26.267100   0.005351  -0.007530 -17.493900   0.006254  -0.004068 -24.480200  -0.304017   0.660093 -36.722900   0.002946  -0.000947 -24.457400   0.001854   0.001912   3.200610  -1.795430   3.378550  25.052100 -12.528700  50.457300 -50.408300 -26.381200  62.672300 -34.189400  25.899000  27.276800 -54.375000  52.028700 102.467000 -17.187200   0.000183   0.000076 -13.593600   0.003866  -0.002253   6.011800  -0.474967  -4.277000   4.140860  -0.043082  -0.024851   3.134280  -0.031814  -0.014362   8.520840  -0.683373  -4.464920   7.988780  -0.059957  -0.028396   5.333840  -0.042340  -0.013373  -2.979290   0.238418  -4.495810   0.808491  -0.035253  -0.041475  -0.356782  -0.025487  -0.027036  -3.450520   0.306913  -4.270890   0.642192  -0.020883  -0.045140  -0.639842  -0.014917  -0.029885   2.906570  11.046200   1.823820   0.413608   0.047500  12.511300  -1.132130  -3.313940   1.625260  -0.000000   0.000000  -0.000000   2.858060  11.445700  -4.995910   0.219123   0.602884 -17.098200   0.661189  -3.813400   1.772150   0.000000   0.000000   0.000000
